<svg width="64" height="64" viewBox="0 0 64 64" xmlns="http://www.w3.org/2000/svg">
  <defs>
    <linearGradient id="smoky-legendary" x1="0%" y1="0%" x2="100%" y2="100%">
      <stop offset="0%" style="stop-color:#ef4444;stop-opacity:1" />
      <stop offset="16%" style="stop-color:#f97316;stop-opacity:1" />
      <stop offset="33%" style="stop-color:#fbbf24;stop-opacity:1" />
      <stop offset="50%" style="stop-color:#8b7355;stop-opacity:1" />
      <stop offset="66%" style="stop-color:#3b82f6;stop-opacity:1" />
      <stop offset="83%" style="stop-color:#8b5cf6;stop-opacity:1" />
      <stop offset="100%" style="stop-color:#ec4899;stop-opacity:1" />
    </linearGradient>
    <filter id="legendary-glow-m">
      <feGaussianBlur stdDeviation="5" result="coloredBlur"/>
      <feMerge>
        <feMergeNode in="coloredBlur"/>
        <feMergeNode in="SourceGraphic"/>
      </feMerge>
    </filter>
    <radialGradient id="prism-center-m">
      <stop offset="0%" style="stop-color:#ffffff;stop-opacity:1" />
      <stop offset="100%" style="stop-color:#8b7355;stop-opacity:0.8" />
    </radialGradient>
  </defs>
  <g transform="translate(32, 32)">
    <polygon points="0,-32 20,-16 24,0 20,32 -20,32 -24,0 -20,-16" fill="url(#smoky-legendary)" stroke="#6b5d52" stroke-width="4" filter="url(#legendary-glow-m)"/>
    <polygon points="0,-32 20,-16 0,-8" fill="#fef3c7" opacity="0.95"/>
    <polygon points="-20,-16 0,-8 -24,0" fill="#8b7355" opacity="0.7"/>
    <polygon points="0,-8 20,32 -20,32" fill="#5a4a42" opacity="0.6"/>
    <circle cx="0" cy="0" r="12" fill="url(#prism-center-m)"/>
    <path d="M 0,-32 L 0,32" stroke="#fbbf24" stroke-width="2" opacity="0.8"/>
    <path d="M -20,-16 L 20,32" stroke="#ef4444" stroke-width="1.5" opacity="0.6"/>
    <path d="M 20,-16 L -20,32" stroke="#3b82f6" stroke-width="1.5" opacity="0.6"/>
    <circle cx="0" cy="-20" r="4" fill="#fbbf24" opacity="1"/>
    <circle cx="-12" cy="0" r="3" fill="#3b82f6" opacity="1"/>
    <circle cx="12" cy="0" r="3" fill="#ec4899" opacity="1"/>
    <circle cx="0" cy="16" r="3" fill="#8b5cf6" opacity="1"/>
    <path d="M -3,-32 L 3,-32 L 0,-27 Z" fill="#ffffff" opacity="1"/>
  </g>
</svg>