<svg width="64" height="64" viewBox="0 0 64 64" xmlns="http://www.w3.org/2000/svg">
  <defs>
    <linearGradient id="fire-opal" x1="0%" y1="0%" x2="100%" y2="100%">
      <stop offset="0%" style="stop-color:#fbbf24;stop-opacity:1" />
      <stop offset="20%" style="stop-color:#f97316;stop-opacity:1" />
      <stop offset="40%" style="stop-color:#ef4444;stop-opacity:1" />
      <stop offset="60%" style="stop-color:#ec4899;stop-opacity:1" />
      <stop offset="80%" style="stop-color:#f97316;stop-opacity:1" />
      <stop offset="100%" style="stop-color:#fbbf24;stop-opacity:1" />
    </linearGradient>
    <filter id="legendary-glow-x2">
      <feGaussianBlur stdDeviation="6" result="coloredBlur"/>
      <feMerge>
        <feMergeNode in="coloredBlur"/>
        <feMergeNode in="SourceGraphic"/>
      </feMerge>
    </filter>
    <radialGradient id="prism-center-x2">
      <stop offset="0%" style="stop-color:#ffffff;stop-opacity:1" />
      <stop offset="50%" style="stop-color:#fbbf24;stop-opacity:0.9" />
      <stop offset="100%" style="stop-color:#ef4444;stop-opacity:0.8" />
    </radialGradient>
  </defs>
  <g transform="translate(32, 32)">
    <polygon points="0,-30 20,-20 28,-8 28,8 20,20 0,30 -20,20 -28,8 -28,-8 -20,-20" fill="url(#fire-opal)" stroke="#fbbf24" stroke-width="4" filter="url(#legendary-glow-x2)"/>
    <polygon points="0,-30 20,-20 0,-10" fill="#fef3c7" opacity="0.95"/>
    <polygon points="-20,-20 0,-10 -28,-8" fill="#f97316" opacity="0.8"/>
    <polygon points="20,-20 28,-8 0,0" fill="#ef4444" opacity="0.7"/>
    <polygon points="-20,-20 -28,-8 0,0" fill="#fbbf24" opacity="0.7"/>
    <polygon points="0,0 28,8 20,20" fill="#ec4899" opacity="0.7"/>
    <polygon points="0,0 -28,8 -20,20" fill="#f97316" opacity="0.7"/>
    <circle cx="0" cy="0" r="12" fill="url(#prism-center-x2)"/>
    <path d="M 0,-30 L 0,30" stroke="#ffffff" stroke-width="2.5" opacity="0.9"/>
    <path d="M -28,-8 L 28,8" stroke="#ef4444" stroke-width="2" opacity="0.8"/>
    <path d="M -28,8 L 28,-8" stroke="#fbbf24" stroke-width="2" opacity="0.8"/>
    <circle cx="0" cy="-20" r="5" fill="#fbbf24" opacity="1"/>
    <circle cx="-16" cy="0" r="4" fill="#f97316" opacity="1"/>
    <circle cx="16" cy="0" r="4" fill="#ef4444" opacity="1"/>
    <circle cx="0" cy="18" r="4" fill="#ec4899" opacity="1"/>
    <path d="M -4,-30 L 4,-30 L 0,-25 Z" fill="#ffffff" opacity="1"/>
  </g>
</svg>