<svg width="64" height="64" viewBox="0 0 64 64" xmlns="http://www.w3.org/2000/svg">
  <defs>
    <linearGradient id="alexandrite" x1="0%" y1="0%" x2="100%" y2="100%">
      <stop offset="0%" style="stop-color:#22c55e;stop-opacity:1" />
      <stop offset="25%" style="stop-color:#06b6d4;stop-opacity:1" />
      <stop offset="50%" style="stop-color:#8b5cf6;stop-opacity:1" />
      <stop offset="75%" style="stop-color:#ec4899;stop-opacity:1" />
      <stop offset="100%" style="stop-color:#ef4444;stop-opacity:1" />
    </linearGradient>
    <filter id="legendary-glow-x3">
      <feGaussianBlur stdDeviation="6" result="coloredBlur"/>
      <feMerge>
        <feMergeNode in="coloredBlur"/>
        <feMergeNode in="SourceGraphic"/>
      </feMerge>
    </filter>
    <radialGradient id="prism-center-x3">
      <stop offset="0%" style="stop-color:#ffffff;stop-opacity:1" />
      <stop offset="50%" style="stop-color:#06b6d4;stop-opacity:0.9" />
      <stop offset="100%" style="stop-color:#8b5cf6;stop-opacity:0.8" />
    </radialGradient>
    <linearGradient id="chameleon-accent" x1="100%" y1="0%" x2="0%" y2="100%">
      <stop offset="0%" style="stop-color:#ec4899;stop-opacity:1" />
      <stop offset="50%" style="stop-color:#06b6d4;stop-opacity:1" />
      <stop offset="100%" style="stop-color:#22c55e;stop-opacity:1" />
    </linearGradient>
  </defs>
  <g transform="translate(32, 32)">
    <polygon points="0,-32 21,-17 25,-2 24,14 18,28 0,32 -18,28 -24,14 -25,-2 -21,-17" fill="url(#alexandrite)" stroke="url(#chameleon-accent)" stroke-width="4" filter="url(#legendary-glow-x3)"/>
    <polygon points="0,-32 21,-17 0,-8" fill="#d1fae5" opacity="0.95"/>
    <polygon points="-21,-17 0,-8 -25,-2" fill="#cffafe" opacity="0.8"/>
    <polygon points="21,-17 25,-2 0,0" fill="#ddd6fe" opacity="0.8"/>
    <polygon points="0,0 24,14 18,28" fill="#fce7f3" opacity="0.7"/>
    <polygon points="0,0 -24,14 -18,28" fill="#d1fae5" opacity="0.7"/>
    <circle cx="0" cy="0" r="13" fill="url(#prism-center-x3)"/>
    <path d="M 0,-32 L 0,32" stroke="url(#chameleon-accent)" stroke-width="2.5" opacity="0.9"/>
    <path d="M -25,-2 L 25,-2" stroke="#22c55e" stroke-width="2" opacity="0.8"/>
    <path d="M -21,-17 L 21,17" stroke="#8b5cf6" stroke-width="2" opacity="0.8"/>
    <path d="M 21,-17 L -21,17" stroke="#ec4899" stroke-width="2" opacity="0.8"/>
    <circle cx="0" cy="-21" r="5" fill="#22c55e" opacity="1"/>
    <circle cx="-18" cy="-5" r="4" fill="#06b6d4" opacity="1"/>
    <circle cx="18" cy="-5" r="4" fill="#8b5cf6" opacity="1"/>
    <circle cx="-10" cy="16" r="4" fill="#ec4899" opacity="1"/>
    <circle cx="10" cy="16" r="4" fill="#ef4444" opacity="1"/>
    <path d="M -4,-32 L 4,-32 L 0,-26 Z" fill="#ffffff" opacity="1"/>
  </g>
</svg>